:SAMPLES-PER-SECOND 30
:FULLY-SPECIFIED
:DEGREES
666
root  27.99 38.412 18.3241 -176.418 -78.4908 174.595
RightUpLeg  -21.2533 -5.45963 -8.15068
RightLeg  11.4524 1.45182 -0.274243
RightFoot  -3.93166 -0.406806 5.85014
RightToes  -5.8209e-011 0 -3.6325e-017
Spine  6.6532 -0.547309 1.30253
Spine1  5.51582 0.600226 -5.49724
HEad  -6.11986 6.20097 -5.49785
LeftShoulder1  -0.129601 3.92966 -24.2374
LeftArm  -10.4245 19.3992 -30.0331
LeftForeArm  16.8798 -12.122 -4.33109
LeftHand  0.0170975 7.82895 2.65748
RightShoulder  -0.293926 -4.61431 19.3
RightArm  -5.51952 -13.9563 27.4843
RightForeArm  -4.7931 3.9809 -1.37651
RightHand  -0.266272 3.14575 -3.88604
LeftUpLeg  11.2081 9.34282 1.7766
LeftLeg  11.0053 4.70944 -0.461475
LeftFoot  -20.2235 -0.0345892 -2.00055
LeftToes  -8.31281e-010 4.41007e-011 3.74621e-011
667
root  27.3204 38.2179 17.8636 -174.75 -78.563 172.763
RightUpLeg  -21.2195 -5.29876 -8.07489
RightLeg  12.4403 1.2369 -0.215296
RightFoot  -3.19117 -0.406314 5.46402
RightToes  -5.8209e-011 0 -3.6325e-017
Spine  7.05573 -0.735782 1.23168
Spine1  5.56652 0.277296 -4.944
HEad  -7.29837 5.90542 -5.31507
LeftShoulder1  -0.0985818 3.82547 -24.2269
LeftArm  -11.0212 15.8387 -28.0721
LeftForeArm  16.191 -12.4526 -4.15737
LeftHand  0.0508161 7.89895 4.01466
RightShoulder  -0.244359 -4.47658 17.8395
RightArm  -5.86306 -14.1196 25.7765
RightForeArm  -10.4088 3.86817 -1.39584
RightHand  -0.358136 2.00834 -5.76313
LeftUpLeg  12.6287 9.3902 2.19667
LeftLeg  11.0484 4.06044 -0.341354
LeftFoot  -21.1695 -0.131262 -3.00679
LeftToes  -8.31281e-010 4.41007e-011 3.74621e-011
668
root  26.6293 38.0928 17.3226 -175.512 -79.4466 173.72
RightUpLeg  -21.6852 -5.26476 -7.4827
RightLeg  15.0457 1.91176 0.235773
RightFoot  0.170787 -0.495249 4.8927
RightToes  -5.8209e-011 0 -3.6325e-017
Spine  7.65827 -1.27558 1.918
Spine1  5.01844 -0.352463 -4.3927
HEad  -8.20334 6.41056 -5.31113
LeftShoulder1  -0.01126 3.54249 -23.3444
LeftArm  -12.264 13.6139 -27.3334
LeftForeArm  14.0546 -13.8354 -3.74237
LeftHand  0.08239 7.96845 5.33149
RightShoulder  -0.219795 -4.38901 17.469
RightArm  -5.68939 -14.6861 23.9898
RightForeArm  -12.4075 5.36909 -1.20716
RightHand  -0.425332 2.71888 -6.31565
LeftUpLeg  13.6837 9.52133 3.50361
LeftLeg  11.0505 2.33615 -0.10555
LeftFoot  -21.7582 -0.265922 -4.34442
LeftToes  -8.31281e-010 4.41007e-011 3.74621e-011
669
root  25.8528 37.8966 16.6915 -178.818 -79.4466 177.249
RightUpLeg  -22.846 -4.39044 -6.4181
RightLeg  19.3452 1.50753 0.397298
RightFoot  0.511697 -0.536175 5.17783
RightToes  -5.8209e-011 0 -3.6325e-017
Spine  8.03177 -1.39346 2.70217
Spine1  4.82581 -0.579348 -3.70521
HEad  -9.7774 5.99713 -5.80577
LeftShoulder1  -0.000160208 3.50427 -22.8243
LeftArm  -15.6579 12.0871 -27.7962
LeftForeArm  13.1987 -16.2599 -3.09784
LeftHand  0.0433358 6.69434 6.36876
RightShoulder  -0.216271 -4.37893 17.3367
RightArm  -5.35512 -14.7626 22.7175
RightForeArm  -12.1331 7.59833 -0.876209
RightHand  -0.464943 3.46018 -6.33479
LeftUpLeg  14.3175 9.6545 5.14596
LeftLeg  12.4609 1.46934 0.425164
LeftFoot  -22.6019 -0.445202 -5.8772
LeftToes  -8.31281e-010 4.41007e-011 3.74621e-011
670
root  25.0296 37.7408 16.0294 174.95 -79.2601 -176.836
RightUpLeg  -22.914 -4.67324 -4.35567
RightLeg  23.0584 1.90449 0.675978
RightFoot  -0.780092 -0.286024 3.0392
RightToes  -5.8209e-011 0 -3.6325e-017
Spine  8.52721 -1.6103 3.70855
Spine1  5.57954 -0.953548 -2.66734
HEad  -12.4193 6.86576 -5.98389
LeftShoulder1  0.0227457 3.42557 -22.6607
LeftArm  -20.7302 11.7699 -28.8147
LeftForeArm  12.8096 -20.2997 -3.39752
LeftHand  0.0120765 5.9206 7.91778
RightShoulder  -0.207297 -4.33261 17.5924
RightArm  -5.38975 -13.6938 22.559
RightForeArm  -11.531 9.59664 -0.515354
RightHand  -0.530763 3.69208 -7.03963
LeftUpLeg  15.1706 8.96055 7.27544
LeftLeg  14.8691 0.975248 0.833811
LeftFoot  -22.9875 -0.724382 -8.44293
LeftToes  -8.31281e-010 4.41007e-011 3.74621e-011
671
root  24.1768 37.6774 15.3763 168.275 -79.416 -170.924
RightUpLeg  -21.5678 -5.80014 -2.50118
RightLeg  25.5173 2.51454 1.0835
RightFoot  -2.49587 -0.138788 1.55002
RightToes  -5.8209e-011 0 -3.6325e-017
Spine  9.10987 -2.20187 4.93108
Spine1  6.90076 -1.65467 -1.3788
HEad  -13.6346 8.15955 -7.24498
LeftShoulder1  -0.0236462 3.5838 -23.0048
LeftArm  -24.5514 11.668 -29.5939
LeftForeArm  12.9131 -24.6789 -4.62402
LeftHand  -0.070805 4.67836 8.98735
RightShoulder  -0.230519 -4.39794 18.4696
RightArm  -5.85792 -11.7061 23.2489
RightForeArm  -9.57017 11.1174 -0.230518
RightHand  -0.502109 4.2578 -6.31498
LeftUpLeg  15.8024 6.16543 8.85256
LeftLeg  18.2005 1.77062 1.12057
LeftFoot  -22.2529 -1.04701 -12.3446
LeftToes  -8.31281e-010 4.41007e-011 3.74621e-011
672
root  23.3571 37.6283 14.7455 162.972 -79.8087 -165.82
RightUpLeg  -20.6428 -7.0513 -1.00263
RightLeg  27.6338 2.8448 1.38487
RightFoot  -4.7184 -0.0408244 0.188913
RightToes  -5.8209e-011 0 -3.6325e-017
Spine  9.72545 -2.7659 6.31927
Spine1  6.92699 -2.13787 -0.00539364
HEad  -13.191 8.6616 -7.64554
LeftShoulder1  -0.0888349 3.80123 -23.5693
LeftArm  -24.6636 11.214 -30.5506
LeftForeArm  13.6383 -28.5904 -5.44482
LeftHand  -0.103859 4.27167 9.20692
RightShoulder  -0.244065 -4.42798 19.1111
RightArm  -5.54828 -10.0731 25.2828
RightForeArm  -8.93495 11.0363 0.056157
RightHand  -0.481082 4.93215 -5.69925
LeftUpLeg  13.9744 3.09543 9.91844
LeftLeg  24.4651 2.45531 1.53039
LeftFoot  -19.9466 -1.14464 -17.0555
LeftToes  -8.31281e-010 4.41007e-011 3.74621e-011
673
root  22.5668 37.6394 14.129 160.436 -79.6353 -163.056
RightUpLeg  -19.8187 -7.56105 0.210598
RightLeg  28.7221 3.21214 1.66505
RightFoot  -6.84478 -0.0443529 -0.0549621
RightToes  -5.8209e-011 0 -3.6325e-017
Spine  9.70735 -2.73925 7.98421
Spine1  6.88439 -1.76753 0.279081
HEad  -12.5958 8.44978 -7.17305
LeftShoulder1  -0.0852691 3.78739 -23.7426
LeftArm  -24.0992 10.3176 -32.5321
LeftForeArm  16.3829 -32.0443 -6.12753
LeftHand  -0.132471 3.92176 9.29577
RightShoulder  -0.314988 -4.64821 20.3789
RightArm  -5.32589 -8.11852 28.3344
RightForeArm  -8.7947 9.56043 0.136139
RightHand  -0.550327 5.49889 -6.17703
LeftUpLeg  10.0332 1.18613 10.7475
LeftLeg  33.0488 2.70471 2.2699
LeftFoot  -14.0012 -0.404962 -18.2639
LeftToes  -8.31281e-010 4.41007e-011 3.74621e-011
674
root  21.7527 37.7857 13.5132 159.507 -79.2384 -162.058
RightUpLeg  -18.0297 -7.07311 1.18133
RightLeg  28.259 2.88664 1.44146
RightFoot  -8.24003 -0.0436785 -0.442023
RightToes  -5.8209e-011 0 -3.6325e-017
Spine  9.78839 -2.5564 9.47649
Spine1  6.83103 -1.21585 -0.297168
HEad  -12.0445 8.50231 -7.07273
LeftShoulder1  -0.0554019 3.6867 -23.8088
LeftArm  -22.995 9.62525 -34.7789
LeftForeArm  21.7908 -35.6622 -6.75353
LeftHand  -0.0793967 4.44829 7.98654
RightShoulder  -0.356006 -4.73677 21.8751
RightArm  -4.66874 -4.89438 32.3258
RightForeArm  -8.77123 6.48554 0.398638
RightHand  -0.587961 5.02123 -6.83657
LeftUpLeg  4.72685 0.198557 11.0854
LeftLeg  42.6903 3.51655 3.88824
LeftFoot  -2.31255 0.693938 -9.81218
LeftToes  -8.31281e-010 4.41007e-011 3.74621e-011
675
root  20.9937 37.8994 12.9905 158.897 -78.9359 -161.738
RightUpLeg  -16.0201 -6.72639 1.81733
RightLeg  27.8786 2.65747 1.28047
RightFoot  -9.7057 -0.0586405 -0.471385
RightToes  -5.8209e-011 0 -3.6325e-017
Spine  10.2032 -2.50278 10.41
Spine1  7.20607 -0.952092 0.016842
HEad  -12.1609 8.40897 -7.67571
LeftShoulder1  -0.107378 3.85288 -24.4958
LeftArm  -21.2257 9.07179 -36.7006
LeftForeArm  27.8163 -39.3206 -7.4138
LeftHand  -0.100939 3.9157 6.49007
RightShoulder  -0.275002 -4.43246 22.4222
RightArm  -3.62789 -0.851146 37.4286
RightForeArm  -6.51236 2.87883 0.780982
RightHand  -0.46076 4.28082 -5.81114
LeftUpLeg  -0.487294 -0.551141 10.9496
LeftLeg  50.9303 3.22779 4.62511
LeftFoot  6.58262 0.32922 -1.89827
LeftToes  -8.31281e-010 4.41007e-011 3.74621e-011
676
root  20.1768 38.1248 12.5031 161.189 -78.5797 -164.582
RightUpLeg  -13.2403 -6.8456 1.66204
RightLeg  26.6334 3.29721 1.5583
RightFoot  -10.7892 -0.071734 -0.303624
RightToes  -5.8209e-011 0 -3.6325e-017
Spine  10.2855 -2.3669 11.4756
Spine1  7.77551 -0.329055 -1.01018
HEad  -11.7156 8.32305 -7.58992
LeftShoulder1  -0.0498009 3.66581 -24.4965
LeftArm  -19.0076 9.06643 -38.8915
LeftForeArm  33.4145 -42.1541 -7.91767
LeftHand  -0.058094 4.45562 4.91872
RightShoulder  -0.265079 -4.35831 23.725
RightArm  -1.73725 3.84028 42.3527
RightForeArm  -2.47441 -0.444798 1.45823
RightHand  -0.358638 3.37872 -4.97148
LeftUpLeg  -4.31471 -0.932784 10.1367
LeftLeg  56.0721 0.612345 1.47666
LeftFoot  3.73619 0.471792 -3.72757
LeftToes  -8.31281e-010 4.41007e-011 3.74621e-011
